<svg height="512pt" viewBox="0 0 512 512" width="512pt" xmlns="http://www.w3.org/2000/svg"><path d="m286 512h-60c-6.503906 0-12.265625-4.191406-14.269531-10.378906l-8.738281-26.972656c-22.644532-5.480469-44.140626-14.417969-64.101563-26.652344l-24.675781 12.339844c-5.773438 2.886718-12.75 1.753906-17.3125-2.8125l-42.425782-42.425782c-4.566406-4.566406-5.699218-11.539062-2.8125-17.316406l12.339844-24.671875c-12.234375-19.960937-21.171875-41.460937-26.652344-64.101563l-26.972656-8.738281c-6.1875-2.003906-10.378906-7.765625-10.378906-14.269531v-60c0-6.503906 4.191406-12.265625 10.378906-14.269531l26.972656-8.738281c5.484376-22.644532 14.417969-44.140626 26.652344-64.101563l-12.339844-24.675781c-2.886718-5.773438-1.753906-12.75 2.8125-17.3125l42.421876-42.425782c4.566406-4.566406 11.542968-5.699218 17.316406-2.8125l24.675781 12.339844c19.957031-12.234375 41.453125-21.167968 64.101563-26.652344l8.734374-26.972656c2.007813-6.1875 7.769532-10.378906 14.273438-10.378906h60c6.503906 0 12.265625 4.191406 14.269531 10.378906l8.738281 26.972656c22.648438 5.484376 44.144532 14.417969 64.101563 26.652344l24.675781-12.339844c5.769532-2.886718 12.75-1.753906 17.3125 2.8125l42.425782 42.421876c4.566406 4.566406 5.699218 11.542968 2.8125 17.316406l-12.324219 24.648437c12.960937 20.898438 22.226562 42.425781 27.628906 64.203125l26.101563 8.703125c6.125 2.042969 10.257812 7.773438 10.257812 14.230469v60c0 6.457031-4.132812 12.1875-10.257812 14.230469l-26.101563 8.703125c-5.402344 21.769531-14.664063 43.300781-27.628906 64.199218l12.324219 24.648438c2.886718 5.777344 1.753906 12.75-2.8125 17.316406l-42.421876 42.425782c-4.566406 4.566406-11.539062 5.699218-17.316406 2.8125l-24.675781-12.339844c-19.960937 12.234375-41.453125 21.171875-64.101563 26.652344l-8.734374 26.972656c-2.007813 6.1875-7.769532 10.378906-14.273438 10.378906zm-49.089844-30h38.179688l8.019531-24.761719c1.671875-5.160156 6-9.015625 11.320313-10.082031 24.855468-4.992188 48.222656-14.699219 69.449218-28.859375 4.480469-2.988281 10.21875-3.347656 15.03125-.9375l22.621094 11.308594 27.136719-27.136719-11.308594-22.621094c-2.410156-4.816406-2.050781-10.550781.9375-15.03125 15.109375-22.65625 25.15625-46.023437 29.859375-69.449218 1.058594-5.273438 4.859375-9.578126 9.960938-11.28125l23.882812-7.960938v-38.375l-23.882812-7.960938c-5.101563-1.703124-8.902344-6.003906-9.960938-11.28125-4.707031-23.433593-14.75-46.800781-29.859375-69.453124-2.988281-4.476563-3.347656-10.214844-.9375-15.03125l11.308594-22.617188-27.136719-27.136719-22.621094 11.308594c-4.8125 2.410156-10.550781 2.050781-15.03125-.9375-21.226562-14.160156-44.59375-23.867187-69.449218-28.859375-5.320313-1.066406-9.648438-4.921875-11.320313-10.085938l-8.019531-24.757812h-38.179688l-8.019531 24.761719c-1.671875 5.160156-6 9.015625-11.320313 10.082031-24.855468 4.992188-48.222656 14.703125-69.449218 28.859375-4.480469 2.988281-10.21875 3.347656-15.03125.941406l-22.621094-11.3125-27.136719 27.136719 11.308594 22.621094c2.410156 4.8125 2.050781 10.550781-.9375 15.03125-14.160156 21.226562-23.867187 44.59375-28.855469 69.449218-1.070312 5.320313-4.925781 9.648438-10.085937 11.320313l-24.761719 8.019531v38.179688l24.761719 8.019531c5.160156 1.671875 9.015625 6 10.085937 11.320313 4.984375 24.851562 14.691406 48.214843 28.855469 69.449218 2.988281 4.480469 3.347656 10.21875.9375 15.03125l-11.308594 22.621094 27.136719 27.136719 22.621094-11.308594c4.8125-2.40625 10.550781-2.050781 15.03125.9375 21.226562 14.160156 44.59375 23.871094 69.449218 28.859375 5.320313 1.066406 9.648438 4.921875 11.320313 10.085938zm260.089844-196h.011719zm0 0" fill="#e7e7e7"/><path d="m256 421c-90.980469 0-165-74.019531-165-165s74.019531-165 165-165 165 74.019531 165 165-74.019531 165-165 165zm0-300c-74.4375 0-135 60.5625-135 135s60.5625 135 135 135 135-60.5625 135-135-60.5625-135-135-135zm0 0" fill="#00ddc1"/><g fill="#00465f"><path d="m196 301c-3.839844 0-7.679688-1.464844-10.605469-4.394531l-30-30c-5.859375-5.859375-5.859375-15.355469 0-21.210938l30-30c5.855469-5.859375 15.355469-5.859375 21.210938 0 5.859375 5.855469 5.859375 15.351563 0 21.210938l-19.390625 19.394531 19.390625 19.394531c5.859375 5.859375 5.859375 15.355469 0 21.210938-2.925781 2.929687-6.765625 4.394531-10.605469 4.394531zm0 0"/><path d="m316 301c-3.839844 0-7.679688-1.464844-10.605469-4.394531-5.859375-5.859375-5.859375-15.355469 0-21.210938l19.390625-19.394531-19.390625-19.394531c-5.859375-5.859375-5.859375-15.355469 0-21.210938 5.855469-5.859375 15.351563-5.859375 21.210938 0l30 30c5.859375 5.855469 5.859375 15.351563 0 21.210938l-30 30c-2.925781 2.929687-6.765625 4.394531-10.605469 4.394531zm0 0"/><path d="m241.011719 331.003906c-1.203125 0-2.429688-.148437-3.648438-.453125-8.039062-2.007812-12.925781-10.152343-10.914062-18.1875l30-120c2.007812-8.039062 10.164062-12.921875 18.1875-10.914062 8.039062 2.007812 12.925781 10.152343 10.914062 18.1875l-30 120c-1.703125 6.816406-7.820312 11.367187-14.539062 11.367187zm0 0"/></g></svg>