<svg height="479pt" viewBox="-32 0 479 479.9159" width="479pt" xmlns="http://www.w3.org/2000/svg"><path d="m208.457031 279.941406c22.09375 0 40-17.910156 40-40 0-22.09375-17.90625-40-40-40-22.089843 0-40 17.90625-40 40 .027344 22.078125 17.921875 39.972656 40 40zm0-64c13.253907 0 24 10.746094 24 24s-10.746093 24-24 24c-13.253906 0-24-10.746094-24-24s10.746094-24 24-24zm0 0"/><path d="m.457031 407.941406c.027344 17.605469 11.5625 33.125 28.414063 38.226563 16.855468 5.097656 35.058594-1.421875 44.84375-16.058594 19.550781 5.472656 40.457031 3.300781 58.464844-6.082031 10.511718 33.261718 41.367187 55.878906 76.253906 55.886718 34.882812.011719 65.753906-22.582031 76.289062-55.835937 35.027344 18.195313 78.089844 8.121094 101.414063-23.722656 23.328125-31.84375 19.9375-75.9375-7.976563-103.847657l-56.566406-56.566406 56.566406-56.570312c20.339844-20.46875 28.089844-50.296875 20.289063-78.078125 13.660156-8.890625 20.558593-25.175781 17.445312-41.171875-3.117187-15.996094-15.621093-28.5-31.617187-31.617188-15.996094-3.113281-32.28125 3.785156-41.171875 17.445313-19.507813-5.453125-40.359375-3.308594-58.351563 5.992187-10.496094-33.28125-41.347656-55.9179685-76.242187-55.941406s-65.777344 22.570312-76.316407 55.835938c-35.03125-18.195313-78.09375-8.121094-101.417968 23.722656-23.324219 31.84375-19.9375 75.9375 7.976562 103.847656l56.566406 56.535156-56.566406 56.566406c-20.339844 20.46875-28.089844 50.300782-20.289062 78.082032-11.222656 7.386718-17.988282 19.914062-18.007813 33.351562zm144-194.503906 64-64 64 64v53.007812l-64 64-64-64zm-16 37.007812-10.503906-10.503906 10.503906-10.503906zm16-165.007812 52.6875 52.679688-52.6875 52.6875zm128 0v105.367188l-52.6875-52.6875zm16 144 10.503907 10.503906-10.503907 10.503906zm-16 165.007812-52.6875-52.679687 52.6875-52.6875zm-75.3125-52.679687-52.6875 52.679687v-105.367187zm11.3125 122.175781c-29.613281-.054687-55.328125-20.394531-62.199219-49.199218 1.9375-1.601563 3.824219-3.296876 5.601563-5.097657l56.597656-56.566406 56.570313 56.566406c1.804687 1.808594 3.6875 3.496094 5.597656 5.105469-6.871094 28.789062-32.570312 49.125-62.167969 49.191406zm158.402344-156.121094c22.839844 22.96875 24.917969 59.386719 4.835937 84.804688-20.082031 25.417969-55.988281 31.824219-83.621093 14.914062.238281-2.503906.382812-5.03125.382812-7.597656v-126.863281l21.824219-21.824219zm9.597656-259.878906c13.253907 0 24 10.746094 24 24s-10.746093 24-24 24c-13.253906 0-24-10.746094-24-24s10.746094-24 24-24zm-39.277343 16.894532c-2.265626 11.671874.839843 23.746093 8.457031 32.878906 7.613281 9.128906 18.933593 14.355468 30.820312 14.226562 2.386719-.023437 4.765625-.265625 7.105469-.722656 5.484375 21.808594-.855469 44.894531-16.703125 60.84375l-56.570313 56.566406-21.832031-21.824218v-126.863282c0-2.519531-.152343-5.007812-.375-7.464844 14.667969-9.054687 32.371094-11.808593 49.097657-7.640624zm-128.722657-48.894532c29.6875.046875 55.453125 20.492188 62.25 49.390625-1.921875 1.601563-3.890625 3.121094-5.679687 4.90625l-56.570313 56.566407-56.566406-56.566407c-1.808594-1.808593-3.6875-3.496093-5.601563-5.105469 6.871094-28.789062 32.570313-49.125 62.167969-49.191406zm-158.398437 156.121094c-22.84375-22.972656-24.921875-59.386719-4.839844-84.804688 20.082031-25.417968 55.992188-31.824218 83.625-14.917968-.242188 2.503906-.386719 5.03125-.386719 7.601562v126.863282l-21.824219 21.824218zm0 135.757812 56.566406-56.566406 21.832031 21.824219v126.863281c0 2.519532.152344 5.007813.375 7.464844-14.667969 9.054688-32.367187 11.808594-49.09375 7.636719.453125-2.339844.695313-4.71875.71875-7.101563-.027343-22.082031-17.917969-39.972656-40-40-2.382812.023438-4.761719.265625-7.101562.71875-5.484375-21.804687.851562-44.890625 16.703125-60.839844zm-9.601563 76.121094c13.253907 0 24 10.746094 24 24s-10.746093 24-24 24c-13.253906 0-24-10.746094-24-24s10.746094-24 24-24zm0 0"/></svg>