<?xml version="1.0" encoding="iso-8859-1"?>
<!-- Generator: Adobe Illustrator 19.0.0, SVG Export Plug-In . SVG Version: 6.00 Build 0)  -->
<svg version="1.1" id="Capa_1" xmlns="http://www.w3.org/2000/svg" xmlns:xlink="http://www.w3.org/1999/xlink" x="0px" y="0px"
	 viewBox="0 0 512 512" style="enable-background:new 0 0 512 512;" xml:space="preserve">
<g>
	<g>
		<path d="M316,56c-5.52,0-10,4.48-10,10s4.48,10,10,10c5.52,0,10-4.48,10-10S321.52,56,316,56z"/>
	</g>
</g>
<g>
	<g>
		<path d="M156,56c-5.52,0-10,4.48-10,10s4.48,10,10,10s10-4.48,10-10S161.52,56,156,56z"/>
	</g>
</g>
<g>
	<g>
		<path d="M116,56c-5.52,0-10,4.48-10,10s4.48,10,10,10s10-4.48,10-10S121.52,56,116,56z"/>
	</g>
</g>
<g>
	<g>
		<path d="M76,56c-5.52,0-10,4.48-10,10s4.48,10,10,10s10-4.48,10-10S81.52,56,76,56z"/>
	</g>
</g>
<g>
	<g>
		<path d="M482,16H30C13.458,16,0,29.458,0,46v420c0,16.542,13.458,30,30,30h452c16.542,0,30-13.458,30-30V46
			C512,29.458,498.542,16,482,16z M492,466c0,5.514-4.486,10-10,10H30c-5.514,0-10-4.486-10-10V116h472V466z M492,96H20V46
			c0-5.514,4.486-10,10-10h452c5.514,0,10,4.486,10,10V96z"/>
	</g>
</g>
<g>
	<g>
		<path d="M442,56h-86c-5.522,0-10,4.478-10,10s4.478,10,10,10h86c5.522,0,10-4.478,10-10C452,60.478,447.522,56,442,56z"/>
	</g>
</g>
<g>
	<g>
		<path d="M110.142,306l72.929-72.929c3.905-3.905,3.905-10.237,0-14.142c-3.905-3.904-10.237-3.904-14.143,0l-80,80
			c-3.905,3.905-3.905,10.237,0,14.143l80,80c3.906,3.905,10.237,3.905,14.143,0c3.905-3.905,3.905-10.237,0-14.143L110.142,306z"/>
	</g>
</g>
<g>
	<g>
		<path d="M423.071,298.929l-80-80c-3.906-3.904-10.236-3.904-14.143,0c-3.905,3.905-3.905,10.237,0,14.143L401.857,306
			l-72.929,72.929c-3.905,3.905-3.905,10.237,0,14.143c3.907,3.905,10.236,3.904,14.143,0l80-80
			C426.976,309.167,426.976,302.835,423.071,298.929z"/>
	</g>
</g>
<g>
	<g>
		<path d="M277.644,176.136c-5.446-0.907-10.6,2.773-11.508,8.221l-40,240c-1.016,6.096,3.685,11.646,9.876,11.646
			c4.8,0,9.037-3.467,9.852-8.358l40-240C286.771,182.196,283.092,177.044,277.644,176.136z"/>
	</g>
</g>
<g>
</g>
<g>
</g>
<g>
</g>
<g>
</g>
<g>
</g>
<g>
</g>
<g>
</g>
<g>
</g>
<g>
</g>
<g>
</g>
<g>
</g>
<g>
</g>
<g>
</g>
<g>
</g>
<g>
</g>
</svg>
