<?xml version="1.0" encoding="iso-8859-1"?>
<!-- Generator: Adobe Illustrator 19.0.0, SVG Export Plug-In . SVG Version: 6.00 Build 0)  -->
<svg version="1.1" id="Capa_1" xmlns="http://www.w3.org/2000/svg" xmlns:xlink="http://www.w3.org/1999/xlink" x="0px" y="0px"
	 viewBox="0 0 512 512" style="enable-background:new 0 0 512 512;" xml:space="preserve">
<linearGradient id="SVGID_1_" gradientUnits="userSpaceOnUse" x1="0" y1="258" x2="512" y2="258" gradientTransform="matrix(1 0 0 -1 0 514)">
	<stop  offset="0" style="stop-color:#80D8FF"/>
	<stop  offset="1" style="stop-color:#EA80FC"/>
</linearGradient>
<path style="fill:url(#SVGID_1_);" d="M492,56H20C8.954,56,0,64.954,0,76v360c0,11.046,8.954,20,20,20h472c11.046,0,20-8.954,20-20
	V76C512,64.954,503.046,56,492,56z M472,96v30H40V96H472z M40,416V166h432v250H40z M217.094,247.641L152.056,291l65.038,43.359
	c9.19,6.127,11.675,18.544,5.547,27.734c-6.144,9.218-18.569,11.657-27.734,5.547l-90-60C99.342,303.932,96,297.688,96,291
	s3.342-12.932,8.906-16.641l90-60c9.191-6.129,21.609-3.644,27.734,5.547C228.769,229.097,226.284,241.514,217.094,247.641z
	 M416,291c0,6.688-3.342,12.932-8.906,16.641l-90,60c-9.152,6.103-21.583,3.681-27.734-5.547c-6.128-9.19-3.644-21.607,5.547-27.734
	L359.944,291l-65.038-43.359c-9.19-6.127-11.675-18.544-5.547-27.734c6.127-9.191,18.545-11.674,27.734-5.547l90,60
	C412.658,278.068,416,284.313,416,291z"/>
<g>
</g>
<g>
</g>
<g>
</g>
<g>
</g>
<g>
</g>
<g>
</g>
<g>
</g>
<g>
</g>
<g>
</g>
<g>
</g>
<g>
</g>
<g>
</g>
<g>
</g>
<g>
</g>
<g>
</g>
</svg>
